<?xml version="1.0" encoding="UTF-8"?>
<svg version="1.1" xmlns="http://www.w3.org/2000/svg" width="500" height="500">
<path d="M0 0 C0.83370117 0.17128418 1.66740234 0.34256836 2.52636719 0.51904297 C36.06673754 7.61281086 69.15888504 25.14795437 93 50 C91.82371061 53.52886816 90.83534656 54.13491466 87.88671875 56.28515625 C87.05076172 56.89810547 86.21480469 57.51105469 85.35351562 58.14257812 C84.47373047 58.77615234 83.59394531 59.40972656 82.6875 60.0625 C81.81931641 60.69994141 80.95113281 61.33738281 80.05664062 61.99414062 C73.01216639 67.12476691 73.01216639 67.12476691 69 69 C68.27039063 68.40574219 67.54078125 67.81148438 66.7890625 67.19921875 C38.08384777 44.23504697 2.1604979 28.02850957 -35 27 C-36.28777344 26.96003906 -37.57554687 26.92007813 -38.90234375 26.87890625 C-87.37230537 25.87278649 -130.78149714 43.70149603 -165.796875 76.83203125 C-194.04006816 104.26803327 -213.45553784 145.26910204 -215.16113281 184.7277832 C-215.63923751 209.54242434 -215.63923751 209.54242434 -212 234 C-211.70996094 235.22420654 -211.70996094 235.22420654 -211.4140625 236.47314453 C-200.60705871 280.76017937 -173.53754526 318.9092211 -134.62890625 342.875 C-94.37319248 366.87676873 -47.15449282 374.3577558 -1.60327148 363.05029297 C43.57257141 351.10720862 80.65074862 322.21798003 104.1484375 282.03613281 C113.88662124 265.06783782 119.96123305 247.10069743 124 228 C124.2475 226.83210937 124.495 225.66421875 124.75 224.4609375 C128.10878078 204.54150146 127.28415507 182.71301667 123 163 C122.83371094 162.23252441 122.66742188 161.46504883 122.49609375 160.67431641 C119.22113968 146.12806209 114.84173466 130.70348126 107.62890625 117.60546875 C106 114 106 114 106.73291016 111.96362305 C107.92670598 110.11358455 109.13176145 108.57165451 110.64453125 106.9765625 C111.15693359 106.43 111.66933594 105.8834375 112.19726562 105.3203125 C112.99680664 104.48113281 112.99680664 104.48113281 113.8125 103.625 C117.68992035 99.52231543 121.42694419 95.37220507 125 91 C129.02644072 92.34214691 130.09007799 94.8783797 132.125 98.375 C132.51679443 99.04490967 132.90858887 99.71481934 133.31225586 100.4050293 C159.74215691 146.44233947 165.38496152 201.04143321 151.72583008 252.13378906 C139.29539939 295.83468916 112.04982602 335.45762677 75 362 C74.43168457 362.41266113 73.86336914 362.82532227 73.27783203 363.25048828 C31.80814652 393.07752182 -23.06419173 406.41766422 -73.65527344 398.40234375 C-127.39209693 389.18136446 -176.75479019 361.96150613 -209.05078125 317.2578125 C-231.10182541 285.78108454 -246.96647413 247.58186697 -247.203125 208.64453125 C-247.21013931 207.86900406 -247.21715363 207.09347687 -247.22438049 206.29444885 C-247.24180915 203.80040628 -247.24823436 201.30660127 -247.25 198.8125 C-247.25067474 197.95996643 -247.25134949 197.10743286 -247.25204468 196.22906494 C-247.23573335 183.26262429 -246.74362642 170.71627639 -244 158 C-243.75056641 156.7941626 -243.75056641 156.7941626 -243.49609375 155.56396484 C-233.25970522 107.23494159 -205.76602253 64.27431351 -166 35 C-164.51693359 33.88238281 -164.51693359 33.88238281 -163.00390625 32.7421875 C-141.44390265 17.09786759 -116.03806825 5.66337027 -90 0 C-88.66799561 -0.29197266 -88.66799561 -0.29197266 -87.30908203 -0.58984375 C-58.89315289 -6.51204659 -28.33582937 -6.0777566 0 0 Z " fill="#5994F5" transform="translate(296,53)"/>
<path d="M0 0 C1.9375 1.5625 1.9375 1.5625 3 3 C1.86565183 10.46867848 -2.64033277 14.27014436 -7.91796875 19.37109375 C-8.80857498 20.25225357 -9.69918121 21.13341339 -10.61677551 22.04127502 C-12.98100436 24.3768135 -15.35513905 26.70120945 -17.73535156 29.02038574 C-21.07079679 32.27536083 -24.38680992 35.55012681 -27.70466614 38.82301331 C-29.46802656 40.56023357 -31.23530535 42.29348862 -33.00712585 44.02207947 C-37.34719286 48.27568293 -41.51991187 52.58984998 -45.46382141 57.21485901 C-48.20744315 60.4031287 -51.11564493 63.43951636 -54 66.5 C-58.76667569 71.58615631 -63.47182601 76.69920021 -68 82 C-68.85464844 82.98742187 -69.70929688 83.97484375 -70.58984375 84.9921875 C-82.42841139 98.69277821 -93.93655262 112.66568061 -105 127 C-105.60602051 127.78391113 -106.21204102 128.56782227 -106.83642578 129.37548828 C-128.14925016 156.99543702 -148.43663683 185.82597559 -166 216 C-166.45955078 216.78600586 -166.91910156 217.57201172 -167.39257812 218.38183594 C-172.76755015 227.60374201 -177.97239769 236.90573342 -183.01367188 246.31420898 C-201.78653533 281.34356169 -201.78653533 281.34356169 -219 288 C-231.05718869 291.44040201 -243.72167794 290.51541768 -255 285 C-267.4990598 277.65288241 -274.17528315 265.25377243 -281 253 C-281.55075195 252.01112793 -282.10150391 251.02225586 -282.66894531 250.00341797 C-285.15366654 245.53460791 -287.63400553 241.06340484 -290.10839844 236.58886719 C-296.3789714 225.25856195 -302.83414887 214.03913009 -309.34863281 202.84716797 C-310.82497876 200.30175898 -312.28683561 197.74885348 -313.7421875 195.19140625 C-321.89574764 180.94504079 -331.42850535 167.7926916 -341.5480957 154.8828125 C-350.54362559 143.3275095 -350.54362559 143.3275095 -351.625 137.8125 C-350.72484961 133.76182323 -349.40399011 132.36195232 -346 130 C-339.52805502 128.91587115 -334.33743953 130.60558216 -328.625 133.5 C-327.51330444 134.04684448 -327.51330444 134.04684448 -326.37915039 134.60473633 C-320.07129138 137.79334704 -314.49117712 141.54587943 -309 146 C-308.38769531 146.49193848 -307.77539062 146.98387695 -307.14453125 147.49072266 C-303.67815485 150.27572478 -300.22666394 153.07799896 -296.7890625 155.8984375 C-293.81861514 158.33546462 -290.82524245 160.74032112 -287.8125 163.125 C-283.43184889 166.61629073 -279.15977495 170.2265274 -274.89477539 173.85717773 C-271.38108749 176.84471871 -267.832052 179.78177949 -264.25 182.6875 C-249.88658525 194.43367445 -249.88658525 194.43367445 -245 202 C-244.27554688 201.27425781 -243.55109375 200.54851562 -242.8046875 199.80078125 C-241.06518313 198.06369958 -239.32122718 196.33104865 -237.5703125 194.60546875 C-233.24600398 190.32951512 -229.06618757 186.01471883 -225.109375 181.3984375 C-222.13667105 178.01836301 -219.07005779 174.72908763 -216 171.4375 C-215.41831055 170.81206299 -214.83662109 170.18662598 -214.23730469 169.54223633 C-211.37727337 166.48245297 -208.48450875 163.47386478 -205.5 160.53515625 C-203.18603181 158.24123757 -201.01365494 155.8912007 -198.90234375 153.41015625 C-194.01257611 147.74839182 -188.67192599 142.52289874 -183.37573242 137.24536133 C-181.56639067 135.44137915 -179.76245681 133.63211335 -177.95898438 131.82226562 C-172.71426881 126.57452383 -167.47452168 121.39074292 -161.82250977 116.57739258 C-158.32819155 113.55304027 -155.02899764 110.31590359 -151.6875 107.125 C-146.13591003 101.85792149 -140.53116452 96.83140867 -134.5390625 92.0703125 C-131.76364014 89.8072758 -129.1338161 87.42607849 -126.5 85 C-121.17019019 80.10681303 -115.64422826 75.52422474 -110 71 C-108.85657139 70.07576752 -107.71335221 69.15127591 -106.5703125 68.2265625 C-79.00613624 45.98593959 -50.48350666 24.09827892 -20 6 C-19.39945801 5.63487305 -18.79891602 5.26974609 -18.18017578 4.89355469 C-16.44549117 3.84493808 -14.6917642 2.82802184 -12.9375 1.8125 C-11.95652344 1.24144531 -10.97554688 0.67039062 -9.96484375 0.08203125 C-6.23024568 -1.28092483 -3.83118135 -0.91174748 0 0 Z " fill="#5994F5" transform="translate(463,75)"/>
<path d="M0 0 C2.484375 1.5859375 2.484375 1.5859375 5 4 C5.453125 7.1640625 5.453125 7.1640625 5.25 10.625 C4.83435933 14.97117829 4.83435933 14.97117829 6 19 C6.31500605 22.08005912 6.51083648 25.16099912 6.71875 28.25 C6.83187492 30.95865993 6.83187492 30.95865993 8 33 C8.34432723 37.2606505 8.46774237 41.53192324 8.61254883 45.8034668 C8.68710309 47.92619896 8.77777627 50.04785543 8.86914062 52.16992188 C8.91766051 53.51819377 8.96521846 54.86650069 9.01171875 56.21484375 C9.05772217 57.44323975 9.10372559 58.67163574 9.15112305 59.93725586 C9 63 9 63 7 66 C6.63322321 68.60911673 6.49618999 71.19072265 6.34375 73.8203125 C6.17359375 74.89925781 6.17359375 74.89925781 6 76 C5.01 76.495 5.01 76.495 4 77 C4.10393066 75.73857178 4.10393066 75.73857178 4.20996094 74.45166016 C6.00382732 51.32610515 5.82175048 28.66824574 0.38037109 6.05395508 C0 4 0 4 0 0 Z " fill="#6290DB" transform="translate(417,203)"/>
<path d="M0 0 C1.32 0.66 2.64 1.32 4 2 C3.03900391 3.32451172 3.03900391 3.32451172 2.05859375 4.67578125 C-3.21210869 11.97634739 -8.27362821 19.33138351 -13 27 C-14.26724763 23.19825711 -13.4750819 21.6488868 -12 18 C-11.34 17.34 -10.68 16.68 -10 16 C-9.28072705 13.68234271 -8.6090107 11.34904126 -8 9 C-7.236875 9 -6.47375 9 -5.6875 9 C-2.8993117 8.29819851 -2.8993117 8.29819851 -2 6.15234375 C-1.25331349 4.11690505 -0.58484471 2.08737258 0 0 Z " fill="#5B92E8" transform="translate(329,234)"/>
<path d="M0 0 C0.99 1.32 1.98 2.64 3 4 C2.23147705 4.04487549 1.4629541 4.08975098 0.67114258 4.13598633 C-15.35430687 5.09481472 -31.14626653 6.4010273 -47 9 C-40.92888774 2.38563628 -28.22157222 3.77121418 -19.8046875 3.28125 C-9.58785792 2.83314952 -9.58785792 2.83314952 0 0 Z " fill="#6092DD" transform="translate(258,75)"/>
<path d="M0 0 C3 1 3 1 5 4 C5 3.34 5 2.68 5 2 C5.99 1.67 6.98 1.34 8 1 C6.45315734 4.32687768 4.54045021 7.24703978 2.4375 10.25 C1.81746094 11.14203125 1.19742187 12.0340625 0.55859375 12.953125 C-0.21291016 13.96632812 -0.21291016 13.96632812 -1 15 C-1.33 15 -1.66 15 -2 15 C-2.125 12.625 -2.125 12.625 -2 10 C-1.34 9.34 -0.68 8.68 0 8 C-1.32 7.34 -2.64 6.68 -4 6 C-2.68 4.02 -1.36 2.04 0 0 Z " fill="#5C92E8" transform="translate(342,210)"/>
<path d="M0 0 C1.34780093 2.69560185 0.67336458 3.742617 -0.25 6.5625 C-0.50265625 7.36816406 -0.7553125 8.17382812 -1.015625 9.00390625 C-1.34046875 9.66261719 -1.6653125 10.32132813 -2 11 C-2.99 11.33 -3.98 11.66 -5 12 C-5.268125 12.61875 -5.53625 13.2375 -5.8125 13.875 C-7.51576924 16.92295549 -9.8737675 17.64076848 -13 19 C-11.52239021 14.65550599 -9.27984593 11.4452532 -6.5 7.8125 C-5.7059375 6.76707031 -4.911875 5.72164062 -4.09375 4.64453125 C-2 2 -2 2 0 0 Z " fill="#5F92E3" transform="translate(93,124)"/>
<path d="M0 0 C0.33 0.99 0.66 1.98 1 3 C0.34 3.61875 -0.32 4.2375 -1 4.875 C-3.2284549 6.75637427 -3.2284549 6.75637427 -3 9 C-4.65 9.66 -6.3 10.32 -8 11 C-7.67 12.65 -7.34 14.3 -7 16 C-11.1077065 17.58706842 -12.59232396 18.10191901 -17 17 C-11.39 11.39 -5.78 5.78 0 0 Z " fill="#5D92E7" transform="translate(295,197)"/>
<path d="M0 0 C4.64153369 1.37101408 4.64153369 1.37101408 6.2578125 4.20703125 C6.54398438 5.06683594 6.83015625 5.92664063 7.125 6.8125 C8.43922087 10.52009872 9.95850037 13.63152562 12 17 C12 17.99 12 18.98 12 20 C12.66 20 13.32 20 14 20 C14.33 21.98 14.66 23.96 15 26 C12.3336745 23.60588968 10.78276735 21.07119607 9.08203125 17.9296875 C8.55029297 16.95128906 8.01855469 15.97289062 7.47070312 14.96484375 C6.92349609 13.94519531 6.37628906 12.92554688 5.8125 11.875 C5.25369141 10.84761719 4.69488281 9.82023437 4.11914062 8.76171875 C0 1.14709249 0 1.14709249 0 0 Z " fill="#6191E0" transform="translate(166,298)"/>
<path d="M0 0 C-1.60476004 1.92799595 -2.46851116 2.91325559 -4.98950195 3.32470703 C-5.73159912 3.30263184 -6.47369629 3.28055664 -7.23828125 3.2578125 C-8.05876953 3.24363281 -8.87925781 3.22945312 -9.72460938 3.21484375 C-11.00561523 3.17037109 -11.00561523 3.17037109 -12.3125 3.125 C-17.70756262 2.98465407 -22.67317811 2.97831088 -28 4 C-30.67810075 4.11196073 -33.31732686 4.04625299 -36 4 C-36 3.67 -36 3.34 -36 3 C-23.91909071 1.03102649 -12.25713519 -0.50836045 0 0 Z " fill="#6490DB" transform="translate(247,49)"/>
<path d="M0 0 C0.99 0.99 1.98 1.98 3 3 C2.505 3.45375 2.01 3.9075 1.5 4.375 C-0.22609337 5.87635519 -0.22609337 5.87635519 0 8 C-0.66 8 -1.32 8 -2 8 C-2.33 8.99 -2.66 9.98 -3 11 C-3.99 11.33 -4.98 11.66 -6 12 C-6.33 11.67 -6.66 11.34 -7 11 C-7.66 12.32 -8.32 13.64 -9 15 C-9.80859375 13.359375 -9.80859375 13.359375 -10 11 C-8.41429339 8.87782068 -6.90709742 7.1166444 -5.0625 5.25 C-4.34030273 4.49009766 -4.34030273 4.49009766 -3.60351562 3.71484375 C-2.41346046 2.46587496 -1.20813387 1.2314897 0 0 Z " fill="#5E92E4" transform="translate(412,154)"/>
<path d="M0 0 C-1.15720671 3.47162014 -1.9425679 4.13156927 -5 6 C-5.86625 6.144375 -6.7325 6.28875 -7.625 6.4375 C-10.17808944 6.75071571 -10.17808944 6.75071571 -11.3125 9.0625 C-11.539375 9.701875 -11.76625 10.34125 -12 11 C-12.66 11 -13.32 11 -14 11 C-14 10.01 -14 9.02 -14 8 C-15.32 8.33 -16.64 8.66 -18 9 C-15.34521986 5.83139145 -12.16000194 4.49698412 -8.4375 2.8125 C-7.28121094 2.28269531 -6.12492188 1.75289063 -4.93359375 1.20703125 C-2 0 -2 0 0 0 Z " fill="#6292E4" transform="translate(172,65)"/>
<path d="M0 0 C0.66 0 1.32 0 2 0 C3.34423339 1.65788785 4.67618483 3.32576317 6 5 C6.721875 5.53625 7.44375 6.0725 8.1875 6.625 C10 8 10 8 11 11 C14.00847418 12.22520264 14.00847418 12.22520264 17 13 C17 14.98 17 16.96 17 19 C2.39805825 7.19417476 2.39805825 7.19417476 0 0 Z " fill="#6393E2" transform="translate(91,374)"/>
<path d="M0 0 C0.99 0 1.98 0 3 0 C3.28875 0.61875 3.5775 1.2375 3.875 1.875 C5.08161944 4.15417005 6.45978701 5.5537371 8.4375 7.1875 C10 9 10 9 11.5 12.5625 C12.72023305 16.20403585 12.72023305 16.20403585 16 18 C16.6875 21.625 16.6875 21.625 17 25 C14.83790497 22.96189888 13.21114017 20.94869555 11.66015625 18.41796875 C11.0249707 17.39026367 11.0249707 17.39026367 10.37695312 16.34179688 C9.94318359 15.63087891 9.50941406 14.91996094 9.0625 14.1875 C8.20008604 12.78462272 7.33681676 11.38227085 6.47265625 9.98046875 C6.05902832 9.30935059 5.64540039 8.63823242 5.21923828 7.94677734 C3.53554553 5.25839809 1.77753211 2.62711823 0 0 Z " fill="#648EDD" transform="translate(132,243)"/>
<path d="M0 0 C2.97 0.495 2.97 0.495 6 1 C6 1.66 6 2.32 6 3 C6.99 3 7.98 3 9 3 C9.33 2.01 9.66 1.02 10 0 C10.99 0 11.98 0 13 0 C13.33 2.64 13.66 5.28 14 8 C8.76481294 6.56032356 4.36973991 4.18303389 0 1 C0 0.67 0 0.34 0 0 Z " fill="#5B92EE" transform="translate(145,422)"/>
<path d="M0 0 C3.5625 1.5 3.5625 1.5 6 3 C3 4 3 4 0.8125 3 C-2.96478875 1.656964 -6.21902284 1.55144382 -10 3 C-12.08632697 5.91841857 -12.08632697 5.91841857 -13 9 C-12.01 9 -11.02 9 -10 9 C-10.33 10.98 -10.66 12.96 -11 15 C-13.14978703 12.67106405 -13.96248682 11.22038995 -14.5 8.0625 C-14 5 -14 5 -12.0625 2.125 C-7.94853404 -0.72958863 -4.86744678 -0.81978051 0 0 Z " fill="#6490DB" transform="translate(126,205)"/>
<path d="M0 0 C-5.445 6.435 -5.445 6.435 -11 13 C-11.33 12.01 -11.66 11.02 -12 10 C-12.66 10 -13.32 10 -14 10 C-13.67 8.68 -13.34 7.36 -13 6 C-11.02 6.495 -11.02 6.495 -9 7 C-7.79371992 4.66785852 -6.8345262 2.50357861 -6 0 C-3 -1 -3 -1 0 0 Z " fill="#5D90E5" transform="translate(128,132)"/>
<path d="M0 0 C8.10345611 0.49612997 15.40525933 3.320085 23 6 C20 7 20 7 16.5625 6.5 C13.467467 6.0656094 11.86267668 5.9694364 9 7 C8.67 5.68 8.34 4.36 8 3 C7.236875 3.061875 6.47375 3.12375 5.6875 3.1875 C3 3 3 3 1.1875 1.5 C0.5996875 0.7575 0.5996875 0.7575 0 0 Z " fill="#5F90E0" transform="translate(297,54)"/>
<path d="M0 0 C0.66 0.33 1.32 0.66 2 1 C-3.20808516 7.19835488 -9.37204267 11.23430787 -17 14 C-17.99 13.67 -18.98 13.34 -20 13 C-14.375 10 -14.375 10 -11 10 C-11 9.34 -11 8.68 -11 8 C-9.9275 7.4225 -8.855 6.845 -7.75 6.25 C-4.6973471 4.51624176 -2.35402607 2.6365092 0 0 Z " fill="#6390D9" transform="translate(261,349)"/>
<path d="M0 0 C1.22419163 3.93795909 0.48320272 6.16112237 -1 10 C-1.66 10 -2.32 10 -3 10 C-2.690625 11.1446875 -2.690625 11.1446875 -2.375 12.3125 C-2 15 -2 15 -4 18 C-6.125 18.6875 -6.125 18.6875 -8 19 C-6.60121198 14.53202662 -4.86369228 10.36177921 -2.875 6.125 C-2.33617187 4.97257812 -1.79734375 3.82015625 -1.2421875 2.6328125 C-0.62730469 1.32957031 -0.62730469 1.32957031 0 0 Z " fill="#5F90E0" transform="translate(410,315)"/>
<path d="M0 0 C5.6634221 0.57733915 10.27163948 2.70616368 15.375 5.0625 C16.20644531 5.43955078 17.03789062 5.81660156 17.89453125 6.20507812 C19.93265588 7.13043356 21.9675867 8.0621837 24 9 C24 9.33 24 9.66 24 10 C22.35 10 20.7 10 19 10 C19 9.34 19 8.68 19 8 C15.7 7.34 12.4 6.68 9 6 C9 5.34 9 4.68 9 4 C6.03 3.01 3.06 2.02 0 1 C0 0.67 0 0.34 0 0 Z " fill="#638DDB" transform="translate(320,61)"/>
<path d="M0 0 C0.99 0.33 1.98 0.66 3 1 C0.69 4.96 -1.62 8.92 -4 13 C-6 10 -6 10 -7 7 C-5.75 5.5 -5.75 5.5 -4 4 C-2.68 4 -1.36 4 0 4 C0 2.68 0 1.36 0 0 Z " fill="#5D90E7" transform="translate(105,156)"/>
<path d="M0 0 C0.99 0.33 1.98 0.66 3 1 C5.78172983 1.62588921 8.13726007 2 11 2 C11 2.33 11 2.66 11 3 C13.97 3.495 13.97 3.495 17 4 C17 4.66 17 5.32 17 6 C10.04339229 5.42978625 3.68572695 3.98697306 -3 2 C-2.01 1.34 -1.02 0.68 0 0 Z " fill="#6491DF" transform="translate(197,443)"/>
<path d="M0 0 C2.64 0.33 5.28 0.66 8 1 C5.35719359 3.64280641 2.27123173 4.71943083 -1.125 6.125 C-1.78371094 6.40214844 -2.44242188 6.67929688 -3.12109375 6.96484375 C-4.74556827 7.64759391 -6.37254948 8.32437433 -8 9 C-8 8.34 -8 7.68 -8 7 C-7.34 7 -6.68 7 -6 7 C-6 6.34 -6 5.68 -6 5 C-4.68 5 -3.36 5 -2 5 C-2 4.01 -2 3.02 -2 2 C-1.34 2 -0.68 2 0 2 C0 1.34 0 0.68 0 0 Z " fill="#5F92E3" transform="translate(179,90)"/>
<path d="M0 0 C0.66 0.33 1.32 0.66 2 1 C0.07053972 2.36707496 -1.86710477 3.71844954 -3.8125 5.0625 C-5.43091797 6.19365234 -5.43091797 6.19365234 -7.08203125 7.34765625 C-8.52642578 8.16556641 -8.52642578 8.16556641 -10 9 C-10.99 8.67 -11.98 8.34 -13 8 C-12.67 7.01 -12.34 6.02 -12 5 C-11.01 4.67 -10.02 4.34 -9 4 C-9 3.67 -9 3.34 -9 3 C-7.02 3 -5.04 3 -3 3 C-3 2.34 -3 1.68 -3 1 C-2.01 0.67 -1.02 0.34 0 0 Z " fill="#6090E4" transform="translate(366,416)"/>
<path d="M0 0 C1.17825358 0.90172468 2.34231577 1.82201502 3.5 2.75 C4.1496875 3.26046875 4.799375 3.7709375 5.46875 4.296875 C7 6 7 6 7 10 C5.02 10.99 5.02 10.99 3 12 C2.34 10.68 1.68 9.36 1 8 C1.99 7.67 2.98 7.34 4 7 C3.34 6.401875 2.68 5.80375 2 5.1875 C0 3 0 3 0 0 Z " fill="#6090DF" transform="translate(381,96)"/>
<path d="M0 0 C0.99 0.495 0.99 0.495 2 1 C2 1.66 2 2.32 2 3 C2.66 3 3.32 3 4 3 C5.31626692 6.61973402 6 9.09567131 6 13 C6.66 13 7.32 13 8 13 C7.67 14.65 7.34 16.3 7 18 C4.91567501 14.87351251 3.71441389 11.94269132 2.375 8.4375 C1.92898438 7.28121094 1.48296875 6.12492188 1.0234375 4.93359375 C0 2 0 2 0 0 Z " fill="#6091DA" transform="translate(407,176)"/>
<path d="M0 0 C0.66 0.33 1.32 0.66 2 1 C-1.96 4.96 -5.92 8.92 -10 13 C-10.33 12.01 -10.66 11.02 -11 10 C-10.34 10 -9.68 10 -9 10 C-9.33 9.01 -9.66 8.02 -10 7 C-7 5 -7 5 -4 4 C-2.62804426 2.70644173 -1.28817344 1.37701298 0 0 Z " fill="#5E8FDA" transform="translate(437,109)"/>
<path d="M0 0 C0.33 0 0.66 0 1 0 C1.27293389 6.82334723 -0.43811447 11.778278 -3 18 C-3.66 17.67 -4.32 17.34 -5 17 C-1.92482916 5.47835991 -1.92482916 5.47835991 0 0 Z " fill="#628FDE" transform="translate(416,298)"/>
<path d="M0 0 C2.35953094 2.35953094 2.49141413 3.77895617 3 7 C2.01 7 1.02 7 0 7 C-0.12117188 7.69867188 -0.24234375 8.39734375 -0.3671875 9.1171875 C-0.53476562 10.02726563 -0.70234375 10.93734375 -0.875 11.875 C-1.11863281 13.23238281 -1.11863281 13.23238281 -1.3671875 14.6171875 C-2 17 -2 17 -4 19 C-3.37968409 12.42465139 -1.85102717 6.33307408 0 0 Z " fill="#6391E0" transform="translate(57,191)"/>
<path d="M0 0 C0.33 0.66 0.66 1.32 1 2 C0.360625 2.433125 -0.27875 2.86625 -0.9375 3.3125 C-3.26746003 4.91239177 -3.26746003 4.91239177 -4 8 C-4.66 8 -5.32 8 -6 8 C-6.33 8.66 -6.66 9.32 -7 10 C-9.3140622 10.73075648 -11.64828869 11.40138258 -14 12 C-9.73412126 7.45890328 -4.96387672 3.75264754 0 0 Z " fill="#628FDC" transform="translate(361,140)"/>
<path d="M0 0 C1.05960937 0.08378906 2.11921875 0.16757813 3.2109375 0.25390625 C4.59893625 0.35706832 5.98695835 0.45991663 7.375 0.5625 C8.07367188 0.61857422 8.77234375 0.67464844 9.4921875 0.73242188 C13.36528865 1.11499904 13.36528865 1.11499904 17 0 C17.33 1.65 17.66 3.3 18 5 C11.9490696 3.83445193 5.96533774 2.54656904 0 1 C0 0.67 0 0.34 0 0 Z " fill="#6191E3" transform="translate(286,82)"/>
<path d="M0 0 C0.33 0 0.66 0 1 0 C1.24849534 2.93703525 1.47448285 5.87286332 1.6875 8.8125 C1.76033203 9.64587891 1.83316406 10.47925781 1.90820312 11.33789062 C1.96298828 12.14033203 2.01777344 12.94277344 2.07421875 13.76953125 C2.13182373 14.50792236 2.18942871 15.24631348 2.2487793 16.00708008 C1.92886446 18.56985222 0.95066193 19.38819592 -1 21 C-1.10808032 13.90272572 -0.93854006 7.03905044 0 0 Z " fill="#6391DD" transform="translate(50,223)"/>
<path d="M0 0 C7.48291572 6.15034169 7.48291572 6.15034169 10 10 C8.68428397 9.7452486 7.37239624 9.47065859 6.0625 9.1875 C5.33160156 9.03667969 4.60070312 8.88585937 3.84765625 8.73046875 C3.23792969 8.48941406 2.62820312 8.24835938 2 8 C1 5 1 5 1 3 C0.67 2.01 0.34 1.02 0 0 Z " fill="#5A8FDE" transform="translate(123,365)"/>
<path d="M0 0 C0.33 0.99 0.66 1.98 1 3 C-3.12324647 7.25209792 -7.51282966 11.13635705 -12 15 C-12 12 -12 12 -9.375 9.08203125 C-8.25750594 7.98449244 -7.13214357 6.89492105 -6 5.8125 C-5.42765625 5.25369141 -4.8553125 4.69488281 -4.265625 4.11914062 C-2.85037212 2.73926907 -1.42602845 1.36873266 0 0 Z " fill="#6591D9" transform="translate(258,235)"/>
<path d="M0 0 C1.32 0 2.64 0 4 0 C4.66 2.31 5.32 4.62 6 7 C6.66 7 7.32 7 8 7 C8 7.66 8 8.32 8 9 C8.66 9 9.32 9 10 9 C9.67 10.32 9.34 11.64 9 13 C7.49710267 11.02297434 5.99758658 9.0435417 4.5 7.0625 C4.07074219 6.49853516 3.64148438 5.93457031 3.19921875 5.35351562 C0 1.11328125 0 1.11328125 0 0 Z " fill="#6091DF" transform="translate(115,220)"/>
<path d="M0 0 C3.67758005 3.28355362 5.81389118 6.62778237 8 11 C7.67 11.66 7.34 12.32 7 13 C5.02 12.34 3.04 11.68 1 11 C1.20625 10.113125 1.4125 9.22625 1.625 8.3125 C2.02550239 4.7747289 1.56683516 3.13367033 0 0 Z " fill="#6191E5" transform="translate(424,147)"/>
<path d="M0 0 C0 0.66 0 1.32 0 2 C-1.6396875 2.86625 -1.6396875 2.86625 -3.3125 3.75 C-5.74058143 5.11458176 -6.91741866 5.88438613 -8.5625 8.1875 C-10 10 -10 10 -13.1875 10.75 C-14.5796875 10.87375 -14.5796875 10.87375 -16 11 C-13.17015973 8.0253772 -10.23934977 5.60002342 -6.875 3.25 C-6.00617188 2.63640625 -5.13734375 2.0228125 -4.2421875 1.390625 C-2 0 -2 0 0 0 Z " fill="#6590D8" transform="translate(426,93)"/>
<path d="M0 0 C0.66 0.33 1.32 0.66 2 1 C0.53480226 3.54140493 -0.95224699 5.88875077 -3 8 C-6.3125 8.4375 -6.3125 8.4375 -9 8 C-6.14723863 5.06799526 -3.34920216 2.35684596 0 0 Z " fill="#6291E3" transform="translate(134,85)"/>
<path d="M0 0 C0.99 0 1.98 0 3 0 C1.98408579 5.46864457 0.92908943 10.76390013 -1 16 C-2.17571451 12.32589215 -2.07366746 8.83070817 -2 5 C-1.34 4.67 -0.68 4.34 0 4 C0 2.68 0 1.36 0 0 Z " fill="#5D92E0" transform="translate(444,304)"/>
<path d="M0 0 C2.14588166 3.21882249 3.39802343 6.45123086 4.6875 10.0625 C4.92533203 10.69994141 5.16316406 11.33738281 5.40820312 11.99414062 C6.00030023 13.64194167 6.50661705 15.31999984 7 17 C6.67 17.66 6.34 18.32 6 19 C3.44317914 15.96332761 2.30696173 13.33051924 1.3125 9.5 C1.06113281 8.5615625 0.80976562 7.623125 0.55078125 6.65625 C0 4 0 4 0 0 Z " fill="#5E8ED6" transform="translate(86,299)"/>
<path d="M0 0 C4.95 1.65 9.9 3.3 15 5 C10.77471149 6.05632213 8.22030653 5.87591268 4 5 C3.67 4.34 3.34 3.68 3 3 C2.01 2.67 1.02 2.34 0 2 C0 1.34 0 0.68 0 0 Z M2 4 C2.66 4.66 3.32 5.32 4 6 C3.34 6 2.68 6 2 6 C2 5.34 2 4.68 2 4 Z " fill="#5E8DD8" transform="translate(184,408)"/>
<path d="M0 0 C0.33 0.66 0.66 1.32 1 2 C1.66 2.33 2.32 2.66 3 3 C0.69 4.65 -1.62 6.3 -4 8 C-4.33 6.35 -4.66 4.7 -5 3 C-3.35 2.01 -1.7 1.02 0 0 Z " fill="#5D92EA" transform="translate(382,401)"/>
<path d="M0 0 C0.33 0.99 0.66 1.98 1 3 C0.34 3.61875 -0.32 4.2375 -1 4.875 C-3.2284549 6.75637427 -3.2284549 6.75637427 -3 9 C-5.31 9.66 -7.62 10.32 -10 11 C-6.79239749 7.19364503 -3.59253891 3.45436433 0 0 Z " fill="#6590DC" transform="translate(295,197)"/>
<path d="M0 0 C1.231394 2.46278801 1.07159196 4.2795055 1 7 C0.34 7 -0.32 7 -1 7 C-1.33 8.32 -1.66 9.64 -2 11 C-2.99 11 -3.98 11 -5 11 C-3.77472971 6.94718288 -2.30119506 3.55639236 0 0 Z " fill="#6391E3" transform="translate(75,150)"/>
<path d="M0 0 C0.33 0.99 0.66 1.98 1 3 C0.01 3.66 -0.98 4.32 -2 5 C-3.05104383 6.63495707 -4.05988318 8.29883624 -5 10 C-6.32 9.67 -7.64 9.34 -9 9 C-6.03 6.03 -3.06 3.06 0 0 Z " fill="#6392DE" transform="translate(109,106)"/>
<path d="M0 0 C0.556875 0.33 1.11375 0.66 1.6875 1 C4.30284522 2.1309601 6.1806646 2.15662974 9 2 C7.35 3.65 5.7 5.3 4 7 C3.34 6.67 2.68 6.34 2 6 C2.33 5.67 2.66 5.34 3 5 C1.68 4.67 0.36 4.34 -1 4 C-0.67 2.68 -0.34 1.36 0 0 Z " fill="#5E92E9" transform="translate(146,106)"/>
<path d="M0 0 C0.99 0 1.98 0 3 0 C1.6062718 4.43458973 -0.60582235 6.87378374 -4 10 C-5.125 6.25 -5.125 6.25 -4 4 C-3.01 4 -2.02 4 -1 4 C-0.67 2.68 -0.34 1.36 0 0 Z " fill="#6092E1" transform="translate(416,364)"/>
<path d="M0 0 C0.33 0.66 0.66 1.32 1 2 C-0.07674702 4.28258633 -1.19546116 6.4356434 -2.4375 8.625 C-2.77587891 9.23601562 -3.11425781 9.84703125 -3.46289062 10.4765625 C-4.30146192 11.988353 -5.14982577 13.49470399 -6 15 C-6.33 14.01 -6.66 13.02 -7 12 C-6.02616054 10.31791365 -5.02304948 8.65261839 -4 7 C-3.835 6.113125 -3.67 5.22625 -3.5 4.3125 C-3 2 -3 2 0 0 Z " fill="#648DDC" transform="translate(434,337)"/>
<path d="M0 0 C2.36253009 2.36253009 3.037848 4.31227271 4.1875 7.4375 C4.55230469 8.40558594 4.91710937 9.37367188 5.29296875 10.37109375 C6 13 6 13 5 16 C1.91532502 10.60540561 0.44356295 6.20988129 0 0 Z " fill="#608FDB" transform="translate(438,172)"/>
<path d="M0 0 C0 3.6026412 -1.17803615 4.96901452 -3.48828125 7.63671875 C-5.72852527 9.65699049 -8.10395457 10.32650106 -11 11 C-7.81316569 6.66590534 -4.13621084 3.3810038 0 0 Z " fill="#608FDA" transform="translate(370,374)"/>
<path d="M0 0 C0.33 0 0.66 0 1 0 C0.67 4.62 0.34 9.24 0 14 C-3 10 -3 10 -2.63671875 7.421875 C-2.32347656 6.54015625 -2.01023437 5.6584375 -1.6875 4.75 C-1.22923828 3.41195313 -1.22923828 3.41195313 -0.76171875 2.046875 C-0.51035156 1.37140625 -0.25898438 0.6959375 0 0 Z " fill="#6191DF" transform="translate(452,272)"/>
<path d="M0 0 C3.94139078 1.66751148 6.7892812 4.22710649 10 7 C9.01 7.495 9.01 7.495 8 8 C6.0546875 7.109375 6.0546875 7.109375 3.875 5.75 C3.15054688 5.31171875 2.42609375 4.8734375 1.6796875 4.421875 C1.12539062 3.95265625 0.57109375 3.4834375 0 3 C0 2.01 0 1.02 0 0 Z " fill="#5E90DB" transform="translate(155,223)"/>
<path d="M0 0 C0.33 0.99 0.66 1.98 1 3 C0.01 4.485 0.01 4.485 -1 6 C-1.33 6.66 -1.66 7.32 -2 8 C-5.0625 8.625 -5.0625 8.625 -8 9 C-7.04270084 7.87411986 -6.08412105 6.7493285 -5.125 5.625 C-4.59132813 4.99851563 -4.05765625 4.37203125 -3.5078125 3.7265625 C-2.38567993 2.44163349 -1.20628025 1.20628025 0 0 Z " fill="#6191DF" transform="translate(277,215)"/>
<path d="M0 0 C2.475 0.99 2.475 0.99 5 2 C4.01 2.33 3.02 2.66 2 3 C2 4.65 2 6.3 2 8 C0.68 7.34 -0.64 6.68 -2 6 C-2 5.34 -2 4.68 -2 4 C-1.34 4 -0.68 4 0 4 C0 2.68 0 1.36 0 0 Z " fill="#5D91EA" transform="translate(148,388)"/>
<path d="M0 0 C0.66 0.33 1.32 0.66 2 1 C-0.31 3.31 -2.62 5.62 -5 8 C-5.66 6.68 -6.32 5.36 -7 4 C-6.67 3.34 -6.34 2.68 -6 2 C-4.34178227 1.62690101 -2.67422986 1.29299023 -1 1 C-0.67 0.67 -0.34 0.34 0 0 Z " fill="#6090DD" transform="translate(402,384)"/>
<path d="M0 0 C0.99 0 1.98 0 3 0 C3.66 2.31 4.32 4.62 5 7 C3.35 6.67 1.7 6.34 0 6 C0 4.02 0 2.04 0 0 Z " fill="#5B90E6" transform="translate(91,318)"/>
<path d="M0 0 C0 3.41321235 -0.66867466 4.39472885 -2.5 7.1875 C-2.9640625 7.90292969 -3.428125 8.61835938 -3.90625 9.35546875 C-4.2671875 9.89816406 -4.628125 10.44085938 -5 11 C-6.27596315 7.17211056 -5.62344752 5.63343017 -4 2 C-1.875 0.625 -1.875 0.625 0 0 Z " fill="#5E8FDD" transform="translate(321,250)"/>
<path d="M0 0 C5.75 3.625 5.75 3.625 8 7 C5.625 7.625 5.625 7.625 3 8 C2.34 7.34 1.68 6.68 1 6 C1.66 6 2.32 6 3 6 C2.16666667 3.83333333 2.16666667 3.83333333 0 3 C0 2.01 0 1.02 0 0 Z " fill="#5A8EE4" transform="translate(185,247)"/>
<path d="M0 0 C0.99 0.33 1.98 0.66 3 1 C3 2.32 3 3.64 3 5 C2.01 5.66 1.02 6.32 0 7 C0 6.34 0 5.68 0 5 C-0.66 4.67 -1.32 4.34 -2 4 C-2 3.01 -2 2.02 -2 1 C-1.34 0.67 -0.68 0.34 0 0 Z " fill="#5A91E4" transform="translate(406,137)"/>
<path d="M0 0 C0.33 0.66 0.66 1.32 1 2 C0.34 2 -0.32 2 -1 2 C-1 3.65 -1 5.3 -1 7 C-2.98 7 -4.96 7 -7 7 C-2.25 1.125 -2.25 1.125 0 0 Z " fill="#6091E5" transform="translate(124,93)"/>
<path d="M0 0 C0.66 0 1.32 0 2 0 C2.33 0.99 2.66 1.98 3 3 C3.66 3.66 4.32 4.32 5 5 C5.26991906 7.68839385 5.08737357 10.29141936 5 13 C2.53698577 10.53698577 2.23233479 8.72639964 1.375 5.375 C1.11460938 4.37210937 0.85421875 3.36921875 0.5859375 2.3359375 C0.39257812 1.56507813 0.19921875 0.79421875 0 0 Z " fill="#6492DB" transform="translate(59,314)"/>
<path d="M0 0 C0.66 0 1.32 0 2 0 C2 0.66 2 1.32 2 2 C3.32 2.33 4.64 2.66 6 3 C7.125 6.75 7.125 6.75 6 9 C4.99712471 7.68969568 3.99777175 6.37669473 3 5.0625 C2.443125 4.33160156 1.88625 3.60070312 1.3125 2.84765625 C0 1 0 1 0 0 Z " fill="#5F91E3" transform="translate(125,233)"/>
<path d="M0 0 C0.66 0.33 1.32 0.66 2 1 C0.35 2.98 -1.3 4.96 -3 7 C-4.32 6.67 -5.64 6.34 -7 6 C-4.69 4.02 -2.38 2.04 0 0 Z " fill="#5E91DA" transform="translate(390,117)"/>
<path d="M0 0 C3.3 0.33 6.6 0.66 10 1 C10 1.33 10 1.66 10 2 C1.96428571 4.27678571 1.96428571 4.27678571 -2 3 C-1.34 2.01 -0.68 1.02 0 0 Z " fill="#648DE2" transform="translate(200,83)"/>
<path d="M0 0 C1 3 1 3 0.3125 5.125 C-1 7 -1 7 -3.125 7.75 C-4.053125 7.87375 -4.053125 7.87375 -5 8 C-3.62845496 5.04590299 -2.01136276 2.55991624 0 0 Z " fill="#608FDE" transform="translate(390,351)"/>
<path d="M0 0 C1.65 1.65 3.3 3.3 5 5 C4.01 5.33 3.02 5.66 2 6 C2 6.66 2 7.32 2 8 C1.34 8 0.68 8 0 8 C0 5.36 0 2.72 0 0 Z " fill="#5D90E5" transform="translate(213,272)"/>
<path d="M0 0 C2.29633824 3.44450737 2.54016485 5.93812283 3 10 C1.5 8.625 1.5 8.625 0 7 C0 6.34 0 5.68 0 5 C-0.66 4.67 -1.32 4.34 -2 4 C-1.34 2.68 -0.68 1.36 0 0 Z " fill="#608EE4" transform="translate(444,188)"/>
<path d="M0 0 C2.97 0.495 2.97 0.495 6 1 C4.02 3.97 4.02 3.97 2 7 C1.67 6.34 1.34 5.68 1 5 C1.33 4.34 1.66 3.68 2 3 C1.34 3 0.68 3 0 3 C0 2.01 0 1.02 0 0 Z " fill="#5D92E5" transform="translate(418,123)"/>
<path d="M0 0 C0.99 0.33 1.98 0.66 3 1 C0.69 3.31 -1.62 5.62 -4 8 C-4 4.87099787 -3.57548683 3.62581138 -2 1 C-1.34 0.67 -0.68 0.34 0 0 Z " fill="#6290DC" transform="translate(454,91)"/>
<path d="M0 0 C0.66 0.33 1.32 0.66 2 1 C2 4 2 4 1 6 C0.34 6 -0.32 6 -1 6 C-1 5.34 -1 4.68 -1 4 C-2.32 4.33 -3.64 4.66 -5 5 C-3.35 3.35 -1.7 1.7 0 0 Z " fill="#5E92E8" transform="translate(141,80)"/>
<path d="M0 0 C0.928125 0.2784375 0.928125 0.2784375 1.875 0.5625 C4.04160178 1.23686176 4.04160178 1.23686176 6 0 C5.6875 2.375 5.6875 2.375 5 5 C4.01 5.66 3.02 6.32 2 7 C1.34 4.69 0.68 2.38 0 0 Z " fill="#5C92E3" transform="translate(458,81)"/>
<path d="M0 0 C0 0.66 0 1.32 0 2 C-1.65 2.33 -3.3 2.66 -5 3 C-5.33 3.99 -5.66 4.98 -6 6 C-6.99 6.33 -7.98 6.66 -9 7 C-9.66 6.34 -10.32 5.68 -11 5 C-9.54462432 4.16151196 -8.08559627 3.32936066 -6.625 2.5 C-5.81289062 2.0359375 -5.00078125 1.571875 -4.1640625 1.09375 C-2 0 -2 0 0 0 Z " fill="#6492DF" transform="translate(154,74)"/>
<path d="M0 0 C2.97 0.495 2.97 0.495 6 1 C6 1.66 6 2.32 6 3 C6.99 3 7.98 3 9 3 C9.33 3.99 9.66 4.98 10 6 C5.56909529 4.79157144 3.01887244 3.48331435 0 0 Z " fill="#6392E1" transform="translate(145,422)"/>
<path d="M0 0 C0.99 0.33 1.98 0.66 3 1 C3.66666667 3 4.33333333 5 5 7 C5.99 7.33 6.98 7.66 8 8 C7.34 8.66 6.68 9.32 6 10 C4.99421411 8.71283353 3.99553202 7.42011342 3 6.125 C2.443125 5.40570313 1.88625 4.68640625 1.3125 3.9453125 C0 2 0 2 0 0 Z " fill="#6391DC" transform="translate(82,361)"/>
<path d="M0 0 C1.65 0 3.3 0 5 0 C3.02 2.31 1.04 4.62 -1 7 C-1.33 6.01 -1.66 5.02 -2 4 C-1.34 4 -0.68 4 0 4 C0 2.68 0 1.36 0 0 Z " fill="#638FDF" transform="translate(130,124)"/>
<path d="M0 0 C1.32 0.33 2.64 0.66 4 1 C2.37660195 2.70884005 0.70680947 4.37446717 -1 6 C-1.66 6 -2.32 6 -3 6 C-3 5.01 -3 4.02 -3 3 C-2.34 3 -1.68 3 -1 3 C-0.67 2.01 -0.34 1.02 0 0 Z " fill="#5E8FDB" transform="translate(138,118)"/>
<path d="M0 0 C0.33 1.98 0.66 3.96 1 6 C-1.31 5.34 -3.62 4.68 -6 4 C-1.125 0 -1.125 0 0 0 Z " fill="#6393E4" transform="translate(182,435)"/>
<path d="M0 0 C0.66 0.66 1.32 1.32 2 2 C-0.31 3.65 -2.62 5.3 -5 7 C-5.99 6.01 -6.98 5.02 -8 4 C-5.36 3.34 -2.72 2.68 0 2 C0 1.34 0 0.68 0 0 Z " fill="#638ED8" transform="translate(371,115)"/>
<path d="M0 0 C1.31611677 0.95336021 2.62778961 1.91285774 3.9375 2.875 C4.66839844 3.40867187 5.39929688 3.94234375 6.15234375 4.4921875 C8 6 8 6 9 8 C7.68 7.67 6.36 7.34 5 7 C5 6.34 5 5.68 5 5 C4.360625 4.731875 3.72125 4.46375 3.0625 4.1875 C1 3 1 3 0 0 Z " fill="#5E8BD6" transform="translate(139,380)"/>
<path d="M0 0 C1.98 0 3.96 0 6 0 C6 0.66 6 1.32 6 2 C7.65 2.33 9.3 2.66 11 3 C8.83032311 3.95465783 7.43671207 4.14401212 5.17578125 3.3984375 C3.4315257 2.64129615 1.71372869 1.82390802 0 1 C0 0.67 0 0.34 0 0 Z " fill="#628FDF" transform="translate(208,359)"/>
<path d="M0 0 C0.33 0.99 0.66 1.98 1 3 C-0.50663783 6.01327566 -3.03166411 6.61056618 -6 8 C-4.55746343 4.63408134 -2.66735273 2.48952921 0 0 Z " fill="#6491D9" transform="translate(228,267)"/>
<path d="M0 0 C2.31 0.33 4.62 0.66 7 1 C2.25 5 2.25 5 0 5 C0 3.35 0 1.7 0 0 Z " fill="#5F92DF" transform="translate(160,100)"/>
<path d="M0 0 C1.65 0 3.3 0 5 0 C5.66 1.65 6.32 3.3 7 5 C3.34683329 3.75023244 2.21934164 3.32901247 0 0 Z " fill="#658EDC" transform="translate(130,412)"/>
<path d="M0 0 C0.66 0.33 1.32 0.66 2 1 C-1.465 3.97 -1.465 3.97 -5 7 C-5 6.01 -5 5.02 -5 4 C-4.34 4 -3.68 4 -3 4 C-3 3.01 -3 2.02 -3 1 C-2.01 0.67 -1.02 0.34 0 0 Z " fill="#6190DC" transform="translate(416,131)"/>
</svg>
